# This file uses centimeters as units for non-parametric coordinates.

mtllib cane.mtl
g default
v 47.607129 0.000000 15.019256
v 45.192914 0.000000 14.019256
v 42.778699 0.000000 15.019256
v 41.778702 0.000000 17.433469
v 42.778699 0.000000 19.847682
v 45.192914 0.000000 20.847683
v 47.607129 0.000000 19.847682
v 48.607126 0.000000 17.433469
v 46.607129 104.372330 16.019256
v 45.192914 104.372330 15.433469
v 43.778699 104.372330 16.019256
v 43.192914 104.372330 17.433469
v 43.778699 104.372330 18.847682
v 45.192914 104.372330 19.433469
v 46.607129 104.372330 18.847682
v 47.192914 104.372330 17.433469
v 45.192914 0.000000 17.433469
v 46.607129 108.725571 14.998470
v 45.192914 108.321671 14.574195
v 43.778699 108.725571 14.998470
v 43.192914 109.700676 16.022760
v 43.778699 110.675781 17.047054
v 45.192914 111.079681 17.471330
v 46.607129 110.675781 17.047054
v 47.192914 109.700676 16.022760
v 46.607129 111.184402 12.326141
v 45.192914 110.621422 12.164293
v 43.778699 111.184402 12.326141
v 43.192914 112.543571 12.716874
v 43.778699 113.902733 13.107612
v 45.192914 114.465721 13.269464
v 46.607129 113.902733 13.107612
v 47.192914 112.543571 12.716874
v 46.607129 112.297798 7.582385
v 45.192914 111.729141 7.441785
v 43.778699 112.297798 7.582385
v 43.192914 113.670677 7.921827
v 43.778699 115.043549 8.261272
v 45.192914 115.612213 8.401878
v 46.607129 115.043549 8.261272
v 47.192914 113.670677 7.921827
v 46.607129 112.257835 4.903656
v 45.192914 111.672630 4.929524
v 43.778699 112.257835 4.903656
v 43.192914 113.670677 4.841202
v 43.778699 115.083511 4.778755
v 45.192914 115.668732 4.752890
v 46.607129 115.083511 4.778755
v 47.192914 113.670677 4.841202
v 47.566076 111.382835 4.746689
v 45.192914 110.435204 4.772557
v 42.819753 111.382835 4.746689
v 41.836760 113.670677 4.684235
v 42.819753 115.958504 4.621787
v 45.192914 116.906158 4.595923
v 47.566076 115.958504 4.621787
v 48.549069 113.670677 4.684235
v 47.566078 111.382835 2.256063
v 45.192917 110.435204 2.281930
v 45.192917 113.670677 2.193609
v 42.819755 111.382835 2.256063
v 41.836762 113.670677 2.193609
v 42.819755 115.958504 2.131161
v 45.192917 116.906158 2.105297
v 47.566078 115.958504 2.131161
v 48.549071 113.670677 2.193609
v 47.192914 3.156300 17.433469
v 46.607129 3.156300 18.847682
v 45.192914 3.156300 19.433469
v 43.778699 3.156300 18.847682
v 43.192914 3.156300 17.433469
v 43.778699 3.156300 16.019256
v 45.192914 3.156300 15.433469
v 46.607129 3.156300 16.019256
v 48.607126 0.537474 17.433469
v 47.607129 0.537474 19.847682
v 45.192914 0.537474 20.847683
v 42.778699 0.537474 19.847682
v 41.778702 0.537474 17.433469
v 42.778699 0.537474 15.019256
v 45.192914 0.537474 14.019256
v 47.607129 0.537474 15.019256
vt 0.232437 0.880996
vt 0.196767 0.866221
vt 0.161097 0.880996
vt 0.146322 0.916666
vt 0.161097 0.952335
vt 0.196767 0.967110
vt 0.232437 0.952335
vt 0.247212 0.916666
vt 0.772075 0.020839
vt 0.791528 0.020839
vt 0.810980 0.020839
vt 0.830432 0.020839
vt 0.849884 0.020839
vt 0.869337 0.020839
vt 0.888789 0.020839
vt 0.908241 0.020839
vt 0.927693 0.020839
vt 0.772075 0.984766
vt 0.791528 0.984766
vt 0.810980 0.984766
vt 0.830432 0.984766
vt 0.849884 0.984766
vt 0.869337 0.984766
vt 0.888789 0.984766
vt 0.908241 0.984766
vt 0.927693 0.984766
vt 0.112152 0.893377
vt 0.077806 0.879150
vt 0.043460 0.893377
vt 0.029234 0.927722
vt 0.043460 0.962068
vt 0.077806 0.976294
vt 0.112152 0.962068
vt 0.126378 0.927722
vt 0.196767 0.914648
vt 0.077806 0.925779
vt 0.112152 0.962068
vt 0.077806 0.976294
vt 0.043460 0.962068
vt 0.029234 0.927722
vt 0.043460 0.893377
vt 0.077806 0.879150
vt 0.112152 0.893377
vt 0.126378 0.927722
vt 0.112152 0.962068
vt 0.077806 0.976294
vt 0.043460 0.962068
vt 0.029234 0.927722
vt 0.043460 0.893377
vt 0.077806 0.879150
vt 0.112152 0.893377
vt 0.126378 0.927722
vt 0.112152 0.962068
vt 0.077806 0.976294
vt 0.043460 0.962068
vt 0.029234 0.927722
vt 0.043460 0.893377
vt 0.077806 0.879150
vt 0.112152 0.893377
vt 0.126378 0.927722
vt 0.112152 0.962068
vt 0.077806 0.976294
vt 0.043460 0.962068
vt 0.029234 0.927722
vt 0.043460 0.893377
vt 0.077806 0.879150
vt 0.112152 0.893377
vt 0.126378 0.927722
vt 0.112152 0.962068
vt 0.077806 0.976294
vt 0.043460 0.962068
vt 0.029234 0.927722
vt 0.043460 0.893377
vt 0.077806 0.879150
vt 0.112152 0.893377
vt 0.126378 0.927722
vt 0.112152 0.962068
vt 0.077806 0.976294
vt 0.043460 0.962068
vt 0.029234 0.927722
vt 0.043460 0.893377
vt 0.077806 0.879150
vt 0.112152 0.893377
vt 0.126378 0.927722
vt 0.908241 0.026952
vt 0.888789 0.026952
vt 0.869337 0.026952
vt 0.849884 0.026952
vt 0.830432 0.026952
vt 0.810980 0.026952
vt 0.791528 0.026952
vt 0.927693 0.026952
vt 0.772075 0.026952
vt 0.908241 0.025803
vt 0.888789 0.025803
vt 0.869337 0.025803
vt 0.849884 0.025803
vt 0.830432 0.025803
vt 0.810980 0.025803
vt 0.791528 0.025803
vt 0.927693 0.025803
vt 0.772075 0.025803
vn 0.382683 0.000000 -0.923880
vn 0.382683 0.000000 -0.923880
vn 0.356424 0.364045 -0.860484
vn 0.356424 0.364045 -0.860484
vn -0.382683 0.000000 -0.923880
vn -0.382683 0.000000 -0.923880
vn -0.356424 0.364045 -0.860484
vn -0.356424 0.364045 -0.860484
vn -0.923880 0.000000 -0.382682
vn -0.923880 0.000000 -0.382682
vn -0.860484 0.364045 -0.356423
vn -0.860484 0.364045 -0.356423
vn -0.923880 0.000000 0.382682
vn -0.923880 0.000000 0.382682
vn -0.860485 0.364045 0.356423
vn -0.860484 0.364045 0.356423
vn -0.382683 0.000000 0.923880
vn -0.382683 0.000000 0.923880
vn -0.356424 0.364045 0.860484
vn -0.356424 0.364045 0.860484
vn 0.382683 0.000000 0.923880
vn 0.382683 0.000000 0.923880
vn 0.356424 0.364045 0.860484
vn 0.356424 0.364045 0.860484
vn 0.923880 0.000000 0.382682
vn 0.923880 0.000000 0.382682
vn 0.860484 0.364045 0.356423
vn 0.860484 0.364045 0.356423
vn 0.923880 0.000000 -0.382682
vn 0.923880 0.000000 -0.382682
vn 0.860485 0.364045 -0.356423
vn 0.860484 0.364045 -0.356423
vn 0.000000 -1.000000 -0.000000
vn 0.000000 -1.000000 -0.000000
vn 0.000000 -1.000000 -0.000000
vn 0.000000 -1.000000 0.000000
vn 0.000000 -1.000000 0.000000
vn 0.000000 -1.000000 -0.000000
vn 0.000000 -1.000000 -0.000000
vn 0.000000 -1.000000 0.000000
vn 0.000000 -1.000000 0.000000
vn 0.000001 -0.027288 -0.999628
vn -0.000000 -0.027288 -0.999628
vn 0.000000 -0.027287 -0.999628
vn -0.000001 -0.027288 -0.999628
vn 0.000000 -0.027287 -0.999628
vn 0.000001 -0.027285 -0.999628
vn 0.000000 -0.027285 -0.999628
vn -0.000001 -0.027285 -0.999628
vn 0.000000 -0.027287 -0.999628
vn 0.355079 -0.206460 -0.911753
vn 0.355079 -0.206460 -0.911753
vn 0.355079 -0.206460 -0.911753
vn 0.355079 -0.206460 -0.911753
vn -0.355079 -0.206460 -0.911753
vn -0.355079 -0.206460 -0.911753
vn -0.355079 -0.206460 -0.911753
vn -0.355079 -0.206460 -0.911753
vn -0.911868 -0.099987 -0.398121
vn -0.911868 -0.099987 -0.398121
vn -0.911868 -0.099987 -0.398121
vn -0.911868 -0.099987 -0.398121
vn -0.912309 0.108980 0.394736
vn -0.912309 0.108980 0.394736
vn -0.912308 0.108980 0.394736
vn -0.912309 0.108980 0.394736
vn -0.357441 0.259464 0.897170
vn -0.357441 0.259464 0.897170
vn -0.357441 0.259464 0.897170
vn -0.357441 0.259464 0.897170
vn 0.357441 0.259464 0.897170
vn 0.357441 0.259464 0.897170
vn 0.357441 0.259464 0.897170
vn 0.357441 0.259464 0.897170
vn 0.912309 0.108980 0.394736
vn 0.912309 0.108980 0.394736
vn 0.912309 0.108980 0.394736
vn 0.912308 0.108980 0.394736
vn 0.911868 -0.099987 -0.398121
vn 0.911868 -0.099987 -0.398121
vn 0.911868 -0.099987 -0.398121
vn 0.911868 -0.099987 -0.398121
vn 0.364291 -0.679809 -0.636516
vn 0.364291 -0.679809 -0.636516
vn 0.364291 -0.679809 -0.636516
vn 0.364291 -0.679809 -0.636515
vn -0.364291 -0.679809 -0.636516
vn -0.364291 -0.679809 -0.636516
vn -0.364291 -0.679809 -0.636515
vn -0.364291 -0.679809 -0.636515
vn -0.916565 -0.299183 -0.265328
vn -0.916565 -0.299183 -0.265328
vn -0.916565 -0.299183 -0.265328
vn -0.916565 -0.299183 -0.265328
vn -0.917256 0.305316 0.255782
vn -0.917256 0.305316 0.255782
vn -0.917256 0.305316 0.255782
vn -0.917256 0.305316 0.255782
vn -0.368178 0.721675 0.586200
vn -0.368178 0.721675 0.586200
vn -0.368178 0.721675 0.586200
vn -0.368178 0.721675 0.586200
vn 0.368178 0.721675 0.586200
vn 0.368178 0.721675 0.586200
vn 0.368178 0.721675 0.586200
vn 0.368178 0.721675 0.586200
vn 0.917256 0.305316 0.255782
vn 0.917256 0.305316 0.255782
vn 0.917256 0.305316 0.255782
vn 0.917256 0.305316 0.255782
vn 0.916565 -0.299183 -0.265328
vn 0.916565 -0.299183 -0.265328
vn 0.916565 -0.299183 -0.265328
vn 0.916565 -0.299183 -0.265328
vn 0.382469 -0.899538 -0.211066
vn 0.382469 -0.899538 -0.211066
vn 0.382469 -0.899538 -0.211066
vn 0.382469 -0.899538 -0.211066
vn -0.382469 -0.899538 -0.211066
vn -0.382469 -0.899538 -0.211066
vn -0.382469 -0.899538 -0.211066
vn -0.382469 -0.899538 -0.211066
vn -0.923794 -0.372746 -0.087552
vn -0.923794 -0.372746 -0.087552
vn -0.923794 -0.372746 -0.087552
vn -0.923794 -0.372746 -0.087552
vn -0.923795 0.372716 0.087673
vn -0.923795 0.372716 0.087673
vn -0.923795 0.372716 0.087673
vn -0.923795 0.372716 0.087673
vn -0.382482 0.899367 0.211771
vn -0.382482 0.899367 0.211771
vn -0.382482 0.899367 0.211771
vn -0.382482 0.899367 0.211771
vn 0.382482 0.899367 0.211771
vn 0.382482 0.899367 0.211771
vn 0.382482 0.899367 0.211771
vn 0.382482 0.899367 0.211771
vn 0.923795 0.372716 0.087673
vn 0.923795 0.372716 0.087673
vn 0.923795 0.372716 0.087673
vn 0.923795 0.372716 0.087673
vn 0.923794 -0.372746 -0.087552
vn 0.923794 -0.372746 -0.087552
vn 0.923794 -0.372746 -0.087552
vn 0.923794 -0.372746 -0.087552
vn 0.377074 -0.926023 0.017211
vn 0.377074 -0.926023 0.017211
vn 0.377074 -0.926023 0.017211
vn 0.377074 -0.926023 0.017211
vn -0.377074 -0.926023 0.017211
vn -0.377074 -0.926023 0.017211
vn -0.377074 -0.926023 0.017211
vn -0.377074 -0.926023 0.017211
vn -0.921698 -0.387899 0.002691
vn -0.921698 -0.387899 0.002691
vn -0.921698 -0.387899 0.002691
vn -0.921698 -0.387899 0.002691
vn -0.921877 0.387475 0.002359
vn -0.921877 0.387474 0.002359
vn -0.921877 0.387474 0.002359
vn -0.921877 0.387475 0.002359
vn -0.378141 0.925663 0.012523
vn -0.378141 0.925663 0.012523
vn -0.378141 0.925663 0.012523
vn -0.378141 0.925663 0.012523
vn 0.378141 0.925663 0.012523
vn 0.378141 0.925663 0.012523
vn 0.378141 0.925663 0.012523
vn 0.378141 0.925663 0.012523
vn 0.921877 0.387475 0.002359
vn 0.921877 0.387475 0.002359
vn 0.921877 0.387475 0.002359
vn 0.921877 0.387475 0.002359
vn 0.921698 -0.387899 0.002691
vn 0.921698 -0.387899 0.002691
vn 0.921698 -0.387899 0.002691
vn 0.921698 -0.387899 0.002691
vn 0.061787 -0.119219 0.990944
vn 0.061787 -0.119219 0.990944
vn 0.061787 -0.119219 0.990944
vn 0.061787 -0.119219 0.990944
vn -0.061787 -0.119220 0.990944
vn -0.061787 -0.119220 0.990943
vn -0.061787 -0.119220 0.990943
vn -0.061787 -0.119220 0.990943
vn -0.126814 -0.020285 0.991719
vn -0.126814 -0.020285 0.991719
vn -0.126814 -0.020285 0.991719
vn -0.126814 -0.020285 0.991719
vn -0.104973 0.077960 0.991415
vn -0.104973 0.077960 0.991415
vn -0.104973 0.077960 0.991415
vn -0.104973 0.077960 0.991415
vn -0.038913 0.129582 0.990805
vn -0.038913 0.129582 0.990805
vn -0.038913 0.129582 0.990805
vn -0.038913 0.129582 0.990805
vn 0.038914 0.129583 0.990805
vn 0.038914 0.129583 0.990805
vn 0.038914 0.129583 0.990805
vn 0.038914 0.129583 0.990805
vn 0.104973 0.077959 0.991415
vn 0.104973 0.077959 0.991415
vn 0.104973 0.077959 0.991415
vn 0.104973 0.077959 0.991415
vn 0.126814 -0.020285 0.991719
vn 0.126814 -0.020285 0.991719
vn 0.126814 -0.020285 0.991719
vn 0.126814 -0.020285 0.991719
vn 0.370840 -0.928697 -0.000005
vn 0.370840 -0.928697 -0.000005
vn 0.370840 -0.928697 -0.000005
vn 0.370840 -0.928697 -0.000005
vn -0.370840 -0.928697 0.000003
vn -0.370840 -0.928697 0.000003
vn -0.370840 -0.928697 0.000003
vn -0.370840 -0.928697 0.000003
vn -0.918783 -0.394764 -0.000000
vn -0.918783 -0.394764 -0.000000
vn -0.918783 -0.394764 -0.000000
vn -0.918783 -0.394764 -0.000000
vn -0.918782 0.394766 -0.000001
vn -0.918782 0.394766 -0.000001
vn -0.918782 0.394766 -0.000001
vn -0.918782 0.394766 -0.000001
vn -0.370848 0.928694 -0.000004
vn -0.370848 0.928694 -0.000004
vn -0.370848 0.928694 -0.000004
vn -0.370848 0.928694 -0.000004
vn 0.370848 0.928694 0.000006
vn 0.370848 0.928694 0.000006
vn 0.370848 0.928694 0.000006
vn 0.370848 0.928694 0.000006
vn 0.918782 0.394766 0.000001
vn 0.918782 0.394766 0.000001
vn 0.918782 0.394766 0.000001
vn 0.918782 0.394766 0.000001
vn 0.918783 -0.394764 0.000000
vn 0.918783 -0.394764 0.000000
vn 0.918783 -0.394764 0.000000
vn 0.918783 -0.394764 0.000000
vn 0.923732 0.017914 0.382621
vn 0.923732 0.017914 0.382621
vn 0.923880 0.000000 0.382683
vn 0.923880 0.000000 0.382683
vn 0.382622 0.017914 0.923731
vn 0.382622 0.017914 0.923731
vn 0.382683 0.000000 0.923880
vn 0.382683 0.000000 0.923880
vn -0.382622 0.017914 0.923731
vn -0.382622 0.017914 0.923731
vn -0.382683 0.000000 0.923880
vn -0.382683 0.000000 0.923880
vn -0.923732 0.017914 0.382621
vn -0.923732 0.017914 0.382621
vn -0.923880 0.000000 0.382683
vn -0.923880 0.000000 0.382683
vn -0.923732 0.017914 -0.382621
vn -0.923732 0.017914 -0.382621
vn -0.923880 0.000000 -0.382683
vn -0.923880 0.000000 -0.382683
vn -0.382622 0.017914 -0.923731
vn -0.382622 0.017914 -0.923731
vn -0.382683 0.000000 -0.923880
vn -0.382683 0.000000 -0.923880
vn 0.382622 0.017914 -0.923731
vn 0.382622 0.017914 -0.923731
vn 0.382683 0.000000 -0.923880
vn 0.382683 0.000000 -0.923880
vn 0.923732 0.017914 -0.382621
vn 0.923732 0.017914 -0.382621
vn 0.923880 0.000000 -0.382683
vn 0.923880 0.000000 -0.382683
s 1
g pCylinder1
usemtl initialShadingGroup
f 1/9/1 2/10/2 81/100/3 82/102/4
s 2
f 2/10/5 3/11/6 80/99/7 81/100/8
s 3
f 3/11/9 4/12/10 79/98/11 80/99/12
s 4
f 4/12/13 5/13/14 78/97/15 79/98/16
s 5
f 5/13/17 6/14/18 77/96/19 78/97/20
s 6
f 6/14/21 7/15/22 76/95/23 77/96/24
s 7
f 7/15/25 8/16/26 75/94/27 76/95/28
s 8
f 8/16/29 1/17/30 82/101/31 75/94/32
s 9
f 2/2/33 1/1/34 17/35/35
f 3/3/36 2/2/33 17/35/35
f 4/4/37 3/3/36 17/35/35
f 5/5/38 4/4/37 17/35/35
f 6/6/39 5/5/38 17/35/35
f 7/7/40 6/6/39 17/35/35
f 8/8/41 7/7/40 17/35/35
f 1/1/34 8/8/41 17/35/35
s 10
f 58/77/42 59/78/43 60/36/44
f 59/78/43 61/79/45 60/36/44
f 61/79/45 62/80/46 60/36/44
f 62/80/46 63/81/47 60/36/44
f 63/81/47 64/82/48 60/36/44
f 64/82/48 65/83/49 60/36/44
f 65/83/49 66/84/50 60/36/44
f 66/84/50 58/77/42 60/36/44
s off
f 9/33/51 10/32/52 19/38/53 18/37/54
f 10/32/55 11/31/56 20/39/57 19/38/58
f 11/31/59 12/30/60 21/40/61 20/39/62
f 12/30/63 13/29/64 22/41/65 21/40/66
f 13/29/67 14/28/68 23/42/69 22/41/70
f 14/28/71 15/27/72 24/43/73 23/42/74
f 15/27/75 16/34/76 25/44/77 24/43/78
f 16/34/79 9/33/80 18/37/81 25/44/82
f 18/37/83 19/38/84 27/46/85 26/45/86
f 19/38/87 20/39/88 28/47/89 27/46/90
f 20/39/91 21/40/92 29/48/93 28/47/94
f 21/40/95 22/41/96 30/49/97 29/48/98
f 22/41/99 23/42/100 31/50/101 30/49/102
f 23/42/103 24/43/104 32/51/105 31/50/106
f 24/43/107 25/44/108 33/52/109 32/51/110
f 25/44/111 18/37/112 26/45/113 33/52/114
f 26/45/115 27/46/116 35/54/117 34/53/118
f 27/46/119 28/47/120 36/55/121 35/54/122
f 28/47/123 29/48/124 37/56/125 36/55/126
f 29/48/127 30/49/128 38/57/129 37/56/130
f 30/49/131 31/50/132 39/58/133 38/57/134
f 31/50/135 32/51/136 40/59/137 39/58/138
f 32/51/139 33/52/140 41/60/141 40/59/142
f 33/52/143 26/45/144 34/53/145 41/60/146
f 34/53/147 35/54/148 43/62/149 42/61/150
f 35/54/151 36/55/152 44/63/153 43/62/154
f 36/55/155 37/56/156 45/64/157 44/63/158
f 37/56/159 38/57/160 46/65/161 45/64/162
f 38/57/163 39/58/164 47/66/165 46/65/166
f 39/58/167 40/59/168 48/67/169 47/66/170
f 40/59/171 41/60/172 49/68/173 48/67/174
f 41/60/175 34/53/176 42/61/177 49/68/178
f 42/61/179 43/62/180 51/70/181 50/69/182
f 43/62/183 44/63/184 52/71/185 51/70/186
f 44/63/187 45/64/188 53/72/189 52/71/190
f 45/64/191 46/65/192 54/73/193 53/72/194
f 46/65/195 47/66/196 55/74/197 54/73/198
f 47/66/199 48/67/200 56/75/201 55/74/202
f 48/67/203 49/68/204 57/76/205 56/75/206
f 49/68/207 42/61/208 50/69/209 57/76/210
f 50/69/211 51/70/212 59/78/213 58/77/214
f 51/70/215 52/71/216 61/79/217 59/78/218
f 52/71/219 53/72/220 62/80/221 61/79/222
f 53/72/223 54/73/224 63/81/225 62/80/226
f 54/73/227 55/74/228 64/82/229 63/81/230
f 55/74/231 56/75/232 65/83/233 64/82/234
f 56/75/235 57/76/236 66/84/237 65/83/238
f 57/76/239 50/69/240 58/77/241 66/84/242
s 7
f 68/86/243 67/85/244 16/25/245 15/24/246
s 6
f 69/87/247 68/86/248 15/24/249 14/23/250
s 5
f 70/88/251 69/87/252 14/23/253 13/22/254
s 4
f 71/89/255 70/88/256 13/22/257 12/21/258
s 3
f 72/90/259 71/89/260 12/21/261 11/20/262
s 2
f 73/91/263 72/90/264 11/20/265 10/19/266
s 1
f 74/93/267 73/91/268 10/19/269 9/18/270
s 8
f 67/85/271 74/92/272 9/26/273 16/25/274
s 7
f 76/95/28 75/94/27 67/85/244 68/86/243
s 6
f 77/96/24 76/95/23 68/86/248 69/87/247
s 5
f 78/97/20 77/96/19 69/87/252 70/88/251
s 4
f 79/98/16 78/97/15 70/88/256 71/89/255
s 3
f 80/99/12 79/98/11 71/89/260 72/90/259
s 2
f 81/100/8 80/99/7 72/90/264 73/91/263
s 1
f 82/102/4 81/100/3 73/91/268 74/93/267
s 8
f 75/94/32 82/101/31 74/92/272 67/85/271
